<svg xmlns="http://www.w3.org/2000/svg" width="54" height="44"><path fill-rule="evenodd" fill="#0499C5" d="M0 44V25h3v16h39V25h3v19H0zm11.5-10.986a2.489 2.489 0 0 1 2-1.014 2.5 2.5 0 1 1 0 5 2.489 2.489 0 0 1-2-1.014A2.489 2.489 0 0 1 9.5 37a2.5 2.5 0 1 1 0-5c.822 0 1.544.402 2 1.014zM0 18h30.888a14.044 14.044 0 0 0 4.928 5H0v-5zm29.051-6H3v4H0V9h29.159A14.028 14.028 0 0 0 29 11c0 .338.027.668.051 1z"/><path fill-rule="evenodd" fill="#FFF" d="M43 22c-6.075 0-11-4.925-11-11S36.925 0 43 0s11 4.925 11 11-4.925 11-11 11zm3.711-8.716L44 10.573V4a1 1 0 0 0-2 0v6.971a.997.997 0 0 0 .289.745l2.995 2.995a1.01 1.01 0 0 0 1.427-1.427z"/></svg>