<svg xmlns="http://www.w3.org/2000/svg" width="44" height="48"><path fill-rule="evenodd" fill="#FFF" d="M43.403 23.027h-2.987l-.31-7.452a.63.63 0 0 0-.642-.619h-.711l-.313-.961h4.937c.344 0 .623.269.623.6v7.84a.594.594 0 0 1-.597.592zM39 27c1.1 0 2 .911 2 2v8H3v-8c0-1.089.9-2 2-2v-5l1.173-7.061c.32-1.069.891-1.973 1.991-1.973h27.672c1.1 0 1.671.904 1.991 1.973L39 22v5zm-25 8h16v-8c0-1.089-.9-2-2-2H16c-1.1 0-2 .911-2 2v8zm-9.002-2.59v1.202c0 .221.163.401.364.401h5.279c.201 0 .364-.18.364-.401V32.41c0-.222-.163-.401-.364-.401H5.362c-.201 0-.364.179-.364.401zM37 15c0-.436-.56-1-1-1H8c-.44 0-1 .564-1 1l-1 7c0 .436.56 1 1 1h30c.44 0 1-.564 1-1l-1-7zm1.638 17.009h-5.279c-.201 0-.364.179-.364.401v1.202c0 .221.163.401.364.401h5.279c.201 0 .364-.18.364-.401V32.41c0-.222-.163-.401-.364-.401zM15 22l1-7h1l-1 7h-1zm-5 0l1-7h3l-1 7h-3zm-5.464-7.044a.63.63 0 0 0-.642.619l-.31 7.452H.597A.594.594 0 0 1 0 22.435v-7.84c0-.331.279-.6.623-.6H5.56l-.313.961h-.711zM24 38h18v4l-12 2H14L2 42v-4h22zM4 44l7 1-.01 2.192a.813.813 0 0 1-.818.808H3.825a.813.813 0 0 1-.818-.808L3 45c0-.544.385-1 1-1zm37 1l-.006 2.192a.814.814 0 0 1-.819.808h-6.346a.813.813 0 0 1-.819-.808L33 45l7-1c.615 0 1 .456 1 1z"/><path fill-rule="evenodd" fill="#0499C5" d="M33 7l.732-1.563c.272-1.015-1.183-1.659-1.735-.658L31 7v5H13V7l-.997-2.221c-.552-1.001-2.007-.357-1.735.658L11 7v5H7l-2 1V2c0-1.09.9-2 2-2h30c1.1 0 2 .91 2 2v11l-2-1h-4V7z"/></svg>