<?xml version="1.0" encoding="utf-8"?>
<!-- Generator: Adobe Illustrator 19.2.1, SVG Export Plug-In . SVG Version: 6.00 Build 0)  -->
<svg version="1.1" id="Layer_1" xmlns="http://www.w3.org/2000/svg" xmlns:xlink="http://www.w3.org/1999/xlink" x="0px" y="0px"
	 viewBox="0 0 646.2 191.2" style="enable-background:new 0 0 646.2 191.2;" xml:space="preserve">
<style type="text/css">
	.st0{fill:#FFFFFF;}
</style>
<g>
	<g>
		<g>
			<g>
				<path class="st0" d="M37.4,133.5L0,104.8l0-3c0-19.2,18.9-27.6,36.6-36c13.4-6.4,28.6-13.6,28.6-22h13.5
					c0,16.9-18.5,25.7-36.3,34.2c-13,6.2-26.5,12.6-28.7,20.3l24,18.6l27.5-19V76.5h13.5v28.4L37.4,133.5z"/>
			</g>
			<g>
				<path class="st0" d="M13.5,64.3H0c0-16.9,18.5-25.7,36.3-34.2C47.2,25,58.4,19.7,63,13.5H13.5v18.3H0L0,0c0,0,27.7,0.1,38.3,0.1
					L78.8,0l0,3.1c0,23.1-18.9,30.8-36.6,39.2C28.7,48.7,13.5,55.9,13.5,64.3z"/>
			</g>
		</g>
	</g>
	<g>
		<path class="st0" d="M292.2,82.1c-3.8,7.2-13.3,9.4-20.2,9.5c0,0-1.3,0-1.3,0c-0.1,0-0.1,0-0.2,0c-9.4-0.1-21.8-3.1-21.9-17.2
			v-0.6h66.1c0.1-1.1,0.1-2.3,0.1-3.5v-8.6c0-24.1-13.1-36.3-39-36.3h-9.1c-25.9,0-39,12.2-39,36.3v8.6c0,24.1,13.1,36.3,39,36.3
			h9.1c18.5,0,30.4-6.3,35.7-18.7L292.2,82.1z M248.7,57.5c0-14.1,12.4-17.1,21.9-17.2c0.1,0,0.1,0,0.2,0c0,0,1.3,0,1.3,0
			c9.4,0.1,21.9,3.1,21.9,17.2v3.6h-45.3V57.5z"/>
		<path class="st0" d="M183.6,51.7l39.7,53.2h-23.5L167.3,61l-22.1-0.2v44h-21.7V0h21.7v43.6l21.3,0L198.3,0h22.8L183.6,51.7z"/>
		<path class="st0" d="M380.5,43.4h-8.4c-8,0-21,0.8-21,14.5v46.9h-21v-43c0-16,5.9-34.9,37.4-34.9h12.9V43.4z"/>
		<path class="st0" d="M479.6,104.9h-21V58c0-13.7-12.8-14.5-21-14.5h-19.5v61.4h-21l0-77.1c0,0,24.9-0.8,44.9-0.8
			c31.6,0,37.4,19,37.4,34.9V104.9z"/>
		<path class="st0" d="M646.2,43.4h-8.4c-6.8,0-12,1.8-15.6,5.5c-3.6,3.6-5.4,9.1-5.4,16.3v39.7h-21V59.2c0-10.2,3.2-18.1,9.7-23.7
			s15.7-8.5,27.8-8.5h12.9V43.4z"/>
		<path class="st0" d="M558.6,82.1c-3.8,7.2-13.3,9.4-20.2,9.5c0,0-1.3,0-1.3,0c-0.1,0-0.1,0-0.2,0c-9.4-0.1-21.8-3.1-21.9-17.2
			v-0.6h66.1c0.1-1.1,0.1-2.3,0.1-3.5v-8.6c0-24.1-13.1-36.3-39-36.3h-9.1c-25.9,0-39,12.2-39,36.3v8.6c0,24.1,13.1,36.3,39,36.3
			h9.1c18.5,0,30.4-6.3,35.7-18.7L558.6,82.1z M515.1,57.5c0-14.1,12.4-17.1,21.9-17.2c0.1,0,0.1,0,0.2,0c0,0,1.3,0,1.3,0
			c9.4,0.1,21.9,3.1,21.9,17.2v3.6h-45.3V57.5z"/>
	</g>
	<g>
		<g>
			<g>
				<path class="st0" d="M161.5,155.1v23.1h-3.9v-22.1c-0.1-4.2-1.2-6-4-6c-2.7,0-4.6,1.7-8.5,5.2v22.9h-3.9v-22.1
					c0.1-4.3-1.3-6-4-6c-2.5,0-4.6,1.6-8.4,5.2v22.9h-4.1v-30.8h3.3l0.3,5c3.5-3.9,6.8-5.8,10.2-5.8c3.5,0,5.7,2,6.4,5.7
					c3.4-3.8,6.7-5.7,10-5.7C159.2,146.6,161.5,149.5,161.5,155.1z"/>
				<path class="st0" d="M190.9,156.1v22.1h-3.2l-0.5-5.1c-2,2.5-5.9,5.6-10.4,5.6c-4.4,0-7.3-2.9-7.3-8.3v-3.6
					c0-4.8,2.5-7.5,6.7-7.5h10.6v-3.2c-0.1-3.9-1.1-6-5.1-6c-2.8,0-7,0.4-10.9,0.9l-0.4-3c3.5-0.6,8.2-1.4,12-1.4
					C188,146.6,190.9,149,190.9,156.1z M186.8,170.2v-7.8l-9.9,0.1c-2.5,0.1-3.4,1.8-3.4,4.8v2.7c0,3.5,1.3,5.1,3.9,5.1
					C180.2,175.2,183.9,173.4,186.8,170.2z"/>
				<path class="st0" d="M218.6,148l-0.6,2.6c-2.2-0.4-4.9-0.5-6.7-0.5c-6,0-8.2,2.9-8.2,12.7c0,9.9,2.2,12.7,8.2,12.7
					c1.5,0,4.8-0.1,7.3-0.7l0.4,2.8c-2.4,0.9-5.5,1.4-8.4,1.4c-8.6,0-11.8-4.3-11.8-16.1c0-11.9,3.2-16.2,11.8-16.2
					C212.9,146.6,216.2,146.9,218.6,148z"/>
				<path class="st0" d="M247.9,155.1v23.1h-4v-22.1c0-4.4-1.1-6-3.8-6c-3,0-5.7,1.8-9.7,5.2v22.9h-4.1v-44.5h4.1v12.8
					c0,2.2-0.1,4.3-0.3,6c3.8-3.6,7.4-5.8,11.1-5.8C245.7,146.6,247.9,149.5,247.9,155.1z"/>
				<path class="st0" d="M260.4,134.5c0.8,0,1.3,0.4,1.3,1.3v3.7c0,0.9-0.4,1.3-1.3,1.3h-1.9c-0.8,0-1.2-0.4-1.2-1.3v-3.7
					c0-0.9,0.4-1.3,1.2-1.3H260.4z M257.5,178.2v-30.8h4v30.8H257.5z"/>
				<path class="st0" d="M292.8,155.1v23.1h-4.1v-22.1c0-4.4-1.1-6-3.7-6c-3,0-5.7,1.9-9.8,5.3v22.8h-4.1v-30.8h3.4l0.3,5
					c3.9-3.7,7.5-5.8,11.2-5.8C290.5,146.6,292.8,149.5,292.8,155.1z"/>
				<path class="st0" d="M321.8,174.7l0.4,2.7c-2.2,1-6.7,1.5-9.6,1.5c-8.5,0-11.8-4.4-11.8-16.3c0-12,3.4-16.1,11.4-16.1
					c7.4,0,10.6,3.2,10.6,9.6c0.1,5.5-1.7,8.6-5.9,8.6h-11.8c0.3,8.4,2.6,10.7,7.9,10.7C315.9,175.5,319.3,175.1,321.8,174.7z
					 M305.1,161.6h10.8c2.3,0,2.9-2.3,2.8-5.3c0-4.3-1.8-6.2-6.3-6.2C307,150.1,305.2,152.9,305.1,161.6z"/>
				<path class="st0" d="M349.4,147.6l-0.4,2.9c-3.1-0.2-6.4-0.4-9.5-0.4c-4.7-0.1-6.2,0.1-6.2,4.9c0,3.7,1.2,4.5,3.6,5.1l7.4,1.8
					c3.9,1,5.8,3.1,5.8,8.3c0,7.6-3.4,8.7-10.6,8.7c-1.8,0-5.5-0.1-9.7-0.8l0.3-3c2.5,0.3,5.4,0.4,8.6,0.4c5.7-0.1,7.4-0.8,7.4-5.3
					c0-3.6-1.6-4.4-3.9-5l-7.2-1.8c-4-1-5.7-3.2-5.7-8.4c0-7.4,3-8.5,9.7-8.4C342.2,146.7,346.4,147,349.4,147.6z"/>
				<path class="st0" d="M438,147.6l-0.4,2.9c-3.1-0.2-6.4-0.4-9.5-0.4c-4.7-0.1-6.2,0.1-6.2,4.9c0,3.7,1.2,4.5,3.6,5.1l7.4,1.8
					c3.9,1,5.8,3.1,5.8,8.3c0,7.6-3.4,8.7-10.6,8.7c-1.8,0-5.5-0.1-9.7-0.8l0.3-3c2.5,0.3,5.4,0.4,8.6,0.4c5.7-0.1,7.4-0.8,7.4-5.3
					c0-3.6-1.6-4.4-3.9-5l-7.2-1.8c-4-1-5.7-3.2-5.7-8.4c0-7.4,3-8.5,9.7-8.4C430.8,146.7,434.9,147,438,147.6z"/>
				<path class="st0" d="M467.5,178.2h-3.2l-0.4-4.6c-3.7,3.6-7.1,5.4-10.7,5.4c-4.5,0-6.7-2.9-6.7-8.4v-23.1h4.1v22.1
					c-0.1,4.3,1.1,6,4,6c2.8,0,5.3-1.7,9-5v-23h4V178.2z"/>
				<path class="st0" d="M499.6,162.9c0,11.8-3.1,16-9.5,16c-3.2,0-6.3-1.1-9.3-3.2c0.2,2.1,0.2,3.9,0.2,6v9.3H477v-43.7h3.3l0.4,5
					c2.8-3.7,6.7-5.8,10.3-5.8C497.1,146.6,499.6,151.9,499.6,162.9z M495.3,162.9c0-9.4-1.6-12.7-5.7-12.7c-2.7,0-5.2,1.7-8.6,5.3
					v17.7c3.2,1.4,5.5,2.3,8.1,2.3C493.7,175.4,495.3,172.5,495.3,162.9z"/>
				<path class="st0" d="M530.5,162.9c0,11.8-3.1,16-9.5,16c-3.2,0-6.3-1.1-9.3-3.2c0.2,2.1,0.2,3.9,0.2,6v9.3h-4.1v-43.7h3.3l0.4,5
					c2.8-3.7,6.7-5.8,10.3-5.8C528,146.6,530.5,151.9,530.5,162.9z M526.2,162.9c0-9.4-1.6-12.7-5.7-12.7c-2.7,0-5.2,1.7-8.6,5.3
					v17.7c3.2,1.4,5.5,2.3,8.1,2.3C524.6,175.4,526.2,172.5,526.2,162.9z"/>
				<path class="st0" d="M542.8,170.6c0,2.9,1.2,4.4,3.4,4.4h2.5l0.5,3.1c-1,0.4-3.2,0.6-4.5,0.6c-3.6,0-6-2.6-6-7.4v-37.6h4.1
					L542.8,170.6z"/>
				<path class="st0" d="M558.3,134.5c0.8,0,1.3,0.4,1.3,1.3v3.7c0,0.9-0.4,1.3-1.3,1.3h-1.9c-0.8,0-1.2-0.4-1.2-1.3v-3.7
					c0-0.9,0.4-1.3,1.2-1.3H558.3z M555.4,178.2v-30.8h4v30.8H555.4z"/>
				<path class="st0" d="M588.8,174.7l0.4,2.7c-2.2,1-6.7,1.5-9.6,1.5c-8.5,0-11.8-4.4-11.8-16.3c0-12,3.4-16.1,11.4-16.1
					c7.4,0,10.5,3.2,10.5,9.6c0.1,5.5-1.7,8.6-5.8,8.6h-11.8c0.3,8.4,2.6,10.7,7.9,10.7C582.9,175.5,586.3,175.1,588.8,174.7z
					 M572.1,161.6h10.8c2.3,0,2.9-2.3,2.8-5.3c0-4.3-1.8-6.2-6.3-6.2C574,150.1,572.2,152.9,572.1,161.6z"/>
				<path class="st0" d="M616.4,147.6l-0.4,2.9c-3.1-0.2-6.4-0.4-9.5-0.4c-4.7-0.1-6.2,0.1-6.2,4.9c0,3.7,1.2,4.5,3.6,5.1l7.4,1.8
					c3.9,1,5.8,3.1,5.8,8.3c0,7.6-3.4,8.7-10.6,8.7c-1.8,0-5.5-0.1-9.7-0.8l0.3-3c2.5,0.3,5.4,0.4,8.6,0.4c5.7-0.1,7.4-0.8,7.4-5.3
					c0-3.6-1.6-4.4-3.9-5l-7.2-1.8c-4-1-5.7-3.2-5.7-8.4c0-7.4,3-8.5,9.7-8.4C609.2,146.7,613.3,147,616.4,147.6z"/>
			</g>
		</g>
		<path class="st0" d="M394.7,172.2c0,0,0.9-5.6-0.2-9.6h-3.6c0.8,2.4,0.6,6.2,0.6,6.2l-12.1-14.2c-1-1.2-1.3-2.3-1.3-5.4
			c0-6.8,2.6-7.1,5.4-7.1c3,0,3.9,0.5,4.8,2c0.3,0.4,0.8,1.8,0.8,3.6h3.4c0-3.3-0.8-5.1-1.3-5.7c-1.4-2.1-3.3-3-7.8-3
			c-7,0-8.8,2.6-8.8,9.9c0,3.6,0.3,5.4,3,8.8c-0.3,0-0.6,0-0.6,0c-4.3,0.4-5.3,4.8-5.3,10.8c0,7.5,2.9,10.6,11.7,10.6
			c5.8,0,8.7-1.1,10.2-3.5c0,0,1.1,1.4,1.8,3h3.8C398.6,176.8,394.7,172.2,394.7,172.2z M383.5,175.8c-5.9,0-8.1-2.1-8.1-8
			c0-4.6,0.6-6.8,2.6-7.8c0.3-0.1,0.8-0.4,1.2-0.5l11.6,13.1C390,174.9,387.5,175.8,383.5,175.8z"/>
	</g>
</g>
</svg>
